<?xml version="1.0" encoding="utf-8"?>
<!-- Generator: Adobe Illustrator 22.0.1, SVG Export Plug-In . SVG Version: 6.00 Build 0)  -->
<svg version="1.1" id="Layer_2" xmlns="http://www.w3.org/2000/svg" xmlns:xlink="http://www.w3.org/1999/xlink" x="0px" y="0px"
	 viewBox="0 0 83.3 10" style="enable-background:new 0 0 83.3 10;" xml:space="preserve">
<style type="text/css">
	.st0{fill:#FFFFFF;}
</style>
<path class="st0" d="M47.2,6.1l0.5,0.5c-0.5,0.5-1.2,0.8-1.9,0.8c-1.4,0-2.5-1.1-2.5-2.4s1.1-2.4,2.5-2.4c0.7,0,1.5,0.3,1.9,0.8
	l-0.5,0.5c-0.4-0.4-0.9-0.7-1.4-0.7c-1,0-1.8,0.8-1.8,1.8s0.8,1.8,1.8,1.8C46.3,6.7,46.9,6.5,47.2,6.1z"/>
<path class="st0" d="M49,7.3h-0.7V2.6L49,2.4V7.3z"/>
<path class="st0" d="M51.4,3.8c1,0,1.8,0.8,1.8,1.8s-0.8,1.8-1.8,1.8c-1,0-1.8-0.8-1.8-1.8c0,0,0,0,0,0C49.6,4.6,50.4,3.8,51.4,3.8
	C51.4,3.8,51.4,3.8,51.4,3.8z M51.4,4.4c-0.6,0-1.1,0.5-1.1,1.2s0.5,1.2,1.1,1.2c0.6,0,1.1-0.5,1.1-1.2S52,4.4,51.4,4.4L51.4,4.4z"
	/>
<path class="st0" d="M54.5,5.9c0,0.5,0.3,0.9,0.9,0.9c0.3,0,0.7-0.2,0.8-0.4V3.9h0.7v3.4h-0.7V7c-0.3,0.3-0.6,0.4-1,0.4
	c-0.8,0-1.3-0.6-1.3-1.3V3.9h0.7L54.5,5.9z"/>
<path class="st0" d="M60.3,7c-0.3,0.2-0.7,0.4-1.1,0.4c-1,0-1.7-0.8-1.7-1.8s0.8-1.8,1.8-1.8c0.4,0,0.7,0.1,1,0.3V2.6L61,2.4v4.9
	h-0.7V7z M59.3,6.8c0.4,0,0.7-0.1,1-0.4V4.8c-0.2-0.3-0.6-0.4-1-0.4c-0.7,0-1.2,0.5-1.2,1.2C58.2,6.3,58.7,6.8,59.3,6.8z"/>
<path class="st0" d="M61.8,2.6h3.5v0.6h-2.8v1.5h1.9v0.6h-1.9v2.1h-0.7V2.6z"/>
<path class="st0" d="M67.1,3.8c1,0,1.8,0.8,1.8,1.8S68,7.4,67,7.4c-1,0-1.8-0.8-1.8-1.8c0,0,0,0,0,0C65.3,4.6,66,3.8,67.1,3.8
	C67,3.8,67,3.8,67.1,3.8z M67.1,4.4c-0.6,0-1.1,0.5-1.1,1.2s0.5,1.2,1.1,1.2s1.1-0.5,1.1-1.2S67.7,4.4,67.1,4.4L67.1,4.4z"/>
<path class="st0" d="M69.5,3.9h0.7v0.4c0.2-0.3,0.6-0.5,0.9-0.5c0.1,0,0.2,0,0.4,0.1v0.6c-0.1,0-0.3-0.1-0.4-0.1
	c-0.4,0-0.7,0.2-0.9,0.6v2.3h-0.7V3.9z"/>
<path class="st0" d="M72,3.9h0.7v0.3c0.3-0.3,0.6-0.4,1-0.4c0.4,0,0.8,0.2,1.1,0.6C75,4,75.4,3.8,75.9,3.8c0.8,0,1.3,0.6,1.3,1.3
	v2.2h-0.7V5.3c0-0.5-0.3-0.9-0.8-0.9c-0.3,0-0.6,0.2-0.8,0.5c0,0.1,0,0.2,0,0.3v2.2h-0.7V5.3c0-0.5-0.3-0.9-0.8-0.9
	c-0.3,0-0.6,0.1-0.8,0.4v2.5H72L72,3.9z"/>
<path class="st0" d="M78,6.4c0.3,0.3,0.7,0.4,1.1,0.4c0.5,0,0.8-0.2,0.8-0.5c0-0.2-0.2-0.4-0.6-0.4l-0.6-0.1c-0.7-0.1-1-0.4-1-1
	c0-0.6,0.6-1,1.3-1c0.5,0,1,0.2,1.4,0.4l-0.3,0.4c-0.3-0.2-0.7-0.4-1.1-0.4c-0.4,0-0.7,0.2-0.7,0.5c0,0.3,0.2,0.4,0.6,0.4l0.6,0.1
	c0.7,0.1,1,0.4,1,1c0,0.6-0.6,1.1-1.4,1.1c-0.6,0-1.1-0.2-1.5-0.5L78,6.4z"/>
<path class="st0" d="M8.5,5.6c0.8,0,2-0.2,2-1.1c0-0.1,0-0.1,0-0.2L9.9,2.1C9.8,1.7,9.7,1.4,8.9,1c-0.6-0.3-2-0.9-2.4-0.9
	C6.1,0.2,6,0.7,5.6,0.7c-0.4,0-0.8-0.4-1.2-0.4C4,0.3,3.8,0.6,3.6,1.1c0,0-0.5,1.5-0.6,1.8c0,0,0,0.1,0,0.1C2.9,3.6,5.3,5.6,8.5,5.6
	 M10.6,4.8c0.1,0.5,0.1,0.6,0.1,0.7c0,0.9-1,1.4-2.4,1.4c-3.1,0-5.7-1.8-5.7-3c0-0.2,0-0.3,0.1-0.5C1.6,3.5,0.2,3.7,0.2,5
	C0.2,7,5,9.6,8.9,9.6c2.9,0,3.7-1.3,3.7-2.4C12.6,6.3,11.9,5.4,10.6,4.8"/>
<path class="st0" d="M37.9,6.2c0,0.8,0.5,1.2,1.3,1.2c0.3,0,0.5,0,0.8-0.1V6.3c-0.2,0.1-0.3,0.1-0.5,0.1C39.1,6.4,39,6.3,39,6V4.6h1
	V3.7h-1V2.5l-1.1,0.2v0.9h-0.7v0.9h0.7L37.9,6.2z M34.5,6.2c0-0.2,0.2-0.4,0.6-0.4c0.2,0,0.4,0,0.7,0.1v0.5
	c-0.2,0.1-0.5,0.2-0.7,0.2C34.7,6.6,34.5,6.4,34.5,6.2 M34.8,7.4c0.4,0,0.7-0.1,1-0.3v0.2h1.1V5c0-0.9-0.6-1.4-1.6-1.4
	c-0.6,0-1.1,0.1-1.7,0.4L34,4.8c0.4-0.2,0.8-0.3,1.1-0.3c0.5,0,0.7,0.2,0.7,0.5v0.2c-0.3-0.1-0.5-0.1-0.8-0.1
	c-0.9,0-1.5,0.4-1.5,1.1C33.5,6.9,34,7.4,34.8,7.4 M28.8,7.3H30V5.4h2v1.9h1.2V2.5h-1.2v1.8h-2V2.5h-1.2L28.8,7.3z M24.3,5.5
	c0-0.5,0.4-0.9,1-0.9c0.3,0,0.6,0.1,0.8,0.3v1.3c-0.2,0.2-0.5,0.3-0.8,0.3C24.7,6.4,24.3,6,24.3,5.5 M26,7.3h1.1v-5L26,2.5v1.4
	c-0.3-0.2-0.6-0.2-0.9-0.2c-1.1,0-1.9,0.8-1.9,1.9c0,1,0.8,1.9,1.8,1.9c0,0,0,0,0,0c0.3,0,0.7-0.1,1-0.3V7.3z M21,4.5
	c0.3,0,0.6,0.2,0.8,0.6h-1.5C20.4,4.7,20.6,4.5,21,4.5 M19.1,5.5c0,1.1,0.9,1.9,2,1.9c0.6,0,1.1-0.2,1.5-0.5l-0.7-0.7
	c-0.2,0.2-0.4,0.3-0.7,0.3c-0.4,0-0.7-0.2-0.9-0.6h2.6V5.6c0-1.2-0.8-2-1.8-2C20,3.6,19.1,4.4,19.1,5.5C19.1,5.5,19.1,5.5,19.1,5.5
	 M17.2,3.5c0.4,0,0.6,0.2,0.6,0.5c0,0.3-0.2,0.5-0.6,0.5H16V3.5H17.2z M14.9,7.3H16V5.5h0.9l0.9,1.7h1.3l-1.1-1.9
	C18.7,5.2,19,4.6,19,4c0-0.9-0.7-1.5-1.7-1.5h-2.4L14.9,7.3z"/>
</svg>
